%TF.GenerationSoftware,KiCad,Pcbnew,8.0.3*%
%TF.CreationDate,2024-09-26T22:42:43-05:00*%
%TF.ProjectId,dreamcast_flex,64726561-6d63-4617-9374-5f666c65782e,rev?*%
%TF.SameCoordinates,Original*%
%TF.FileFunction,Soldermask,Bot*%
%TF.FilePolarity,Negative*%
%FSLAX46Y46*%
G04 Gerber Fmt 4.6, Leading zero omitted, Abs format (unit mm)*
G04 Created by KiCad (PCBNEW 8.0.3) date 2024-09-26 22:42:43*
%MOMM*%
%LPD*%
G01*
G04 APERTURE LIST*
%ADD10C,0.600000*%
%ADD11C,4.700000*%
G04 APERTURE END LIST*
D10*
%TO.C,TP21*%
X153480000Y-71680000D03*
%TD*%
%TO.C,TP38*%
X145490000Y-65920000D03*
%TD*%
%TO.C,TP31*%
X148480000Y-71680000D03*
%TD*%
%TO.C,TP39*%
X144480000Y-71680000D03*
%TD*%
%TO.C,TP28*%
X150490000Y-65920000D03*
%TD*%
%TO.C,TP30*%
X149490000Y-65920000D03*
%TD*%
D11*
%TO.C,H2*%
X131760000Y-68795000D03*
%TD*%
D10*
%TO.C,TP46*%
X141490000Y-65920000D03*
%TD*%
%TO.C,TP36*%
X146490000Y-65920000D03*
%TD*%
%TO.C,TP19*%
X154490000Y-71660000D03*
%TD*%
%TO.C,TP44*%
X142490000Y-65910000D03*
%TD*%
%TO.C,TP33*%
X147480000Y-71670000D03*
%TD*%
%TO.C,TP8*%
X160480000Y-65920000D03*
%TD*%
%TO.C,TP18*%
X155470000Y-65920000D03*
%TD*%
%TO.C,TP48*%
X140480000Y-65920000D03*
%TD*%
%TO.C,TP23*%
X152480000Y-71680000D03*
%TD*%
%TO.C,TP26*%
X151490000Y-65920000D03*
%TD*%
%TO.C,TP32*%
X148490000Y-65920000D03*
%TD*%
%TO.C,TP9*%
X159490000Y-71670000D03*
%TD*%
%TO.C,TP11*%
X158490000Y-71670000D03*
%TD*%
%TO.C,TP13*%
X157490000Y-71670000D03*
%TD*%
%TO.C,TP43*%
X142480000Y-71680000D03*
%TD*%
%TO.C,TP40*%
X144490000Y-65920000D03*
%TD*%
%TO.C,TP5*%
X161490000Y-71660000D03*
%TD*%
%TO.C,TP20*%
X154470000Y-65910000D03*
%TD*%
%TO.C,TP24*%
X152480000Y-65920000D03*
%TD*%
%TO.C,TP1*%
X163490000Y-71670000D03*
%TD*%
%TO.C,TP16*%
X156470000Y-65920000D03*
%TD*%
%TO.C,TP2*%
X163490000Y-65920000D03*
%TD*%
%TO.C,TP6*%
X161480000Y-65920000D03*
%TD*%
%TO.C,TP41*%
X143480000Y-71670000D03*
%TD*%
%TO.C,TP42*%
X143490000Y-65910000D03*
%TD*%
%TO.C,TP47*%
X140470000Y-71680000D03*
%TD*%
%TO.C,TP12*%
X158480000Y-65920000D03*
%TD*%
%TO.C,TP29*%
X149480000Y-71680000D03*
%TD*%
%TO.C,TP7*%
X160490000Y-71680000D03*
%TD*%
%TO.C,TP14*%
X157480000Y-65920000D03*
%TD*%
%TO.C,TP37*%
X145480000Y-71670000D03*
%TD*%
%TO.C,TP25*%
X151490000Y-71670000D03*
%TD*%
%TO.C,TP27*%
X150490000Y-71670000D03*
%TD*%
%TO.C,TP4*%
X162490000Y-65920000D03*
%TD*%
%TO.C,TP45*%
X141480000Y-71670000D03*
%TD*%
%TO.C,TP3*%
X162490000Y-71660000D03*
%TD*%
D11*
%TO.C,H1*%
X171220000Y-68795000D03*
%TD*%
D10*
%TO.C,TP35*%
X146480000Y-71680000D03*
%TD*%
%TO.C,TP17*%
X155490000Y-71680000D03*
%TD*%
%TO.C,TP22*%
X153470000Y-65920000D03*
%TD*%
%TO.C,TP15*%
X156490000Y-71670000D03*
%TD*%
%TO.C,TP34*%
X147490000Y-65920000D03*
%TD*%
%TO.C,TP10*%
X159480000Y-65930000D03*
%TD*%
M02*
