M48
; DRILL file {KiCad 8.0.3} date 2024-09-26T22:42:40-0500
; FORMAT={-:-/ absolute / inch / decimal}
; #@! TF.CreationDate,2024-09-26T22:42:40-05:00
; #@! TF.GenerationSoftware,Kicad,Pcbnew,8.0.3
; #@! TF.FileFunction,Plated,1,2,PTH
FMAT,2
INCH
; #@! TA.AperFunction,Plated,PTH,ViaDrill
T1C0.0080
; #@! TA.AperFunction,Plated,PTH,ComponentDrill
T2C0.0138
; #@! TA.AperFunction,Plated,PTH,ComponentDrill
T3C0.1063
%
G90
G05
T1
X6.3579Y-2.6795
X6.3579Y-2.7031
X6.4366Y-2.6795
X6.4366Y-2.7035
T2
X5.5303Y-2.822
X5.5307Y-2.5953
X5.5701Y-2.8217
X5.5705Y-2.5953
X5.6094Y-2.822
X5.6098Y-2.5949
X5.6488Y-2.8217
X5.6492Y-2.5949
X5.6882Y-2.822
X5.6886Y-2.5953
X5.7276Y-2.8217
X5.728Y-2.5953
X5.7669Y-2.822
X5.7673Y-2.5953
X5.8063Y-2.8217
X5.8067Y-2.5953
X5.8457Y-2.822
X5.8461Y-2.5953
X5.885Y-2.822
X5.8854Y-2.5953
X5.9248Y-2.5953
X5.9248Y-2.8217
X5.9642Y-2.5953
X5.9642Y-2.8217
X6.0031Y-2.5953
X6.0031Y-2.822
X6.0421Y-2.5953
X6.0425Y-2.822
X6.0815Y-2.5949
X6.0823Y-2.8213
X6.1209Y-2.5953
X6.1217Y-2.822
X6.1602Y-2.5953
X6.161Y-2.8217
X6.2Y-2.5953
X6.2004Y-2.8217
X6.2394Y-2.5953
X6.2398Y-2.8217
X6.2787Y-2.5957
X6.2791Y-2.8217
X6.3181Y-2.5953
X6.3185Y-2.822
X6.3575Y-2.5953
X6.3579Y-2.8213
X6.3972Y-2.5953
X6.3972Y-2.8213
X6.4366Y-2.5953
X6.4366Y-2.8217
T3
X5.1874Y-2.7085
X6.7409Y-2.7085
M30
