%TF.GenerationSoftware,KiCad,Pcbnew,8.0.3*%
%TF.CreationDate,2024-07-09T00:04:19-05:00*%
%TF.ProjectId,dc_gdemu_ffc,64635f67-6465-46d7-955f-6666632e6b69,rev?*%
%TF.SameCoordinates,Original*%
%TF.FileFunction,Copper,L2,Bot*%
%TF.FilePolarity,Positive*%
%FSLAX46Y46*%
G04 Gerber Fmt 4.6, Leading zero omitted, Abs format (unit mm)*
G04 Created by KiCad (PCBNEW 8.0.3) date 2024-07-09 00:04:19*
%MOMM*%
%LPD*%
G01*
G04 APERTURE LIST*
%TA.AperFunction,ViaPad*%
%ADD10C,0.600000*%
%TD*%
%TA.AperFunction,Conductor*%
%ADD11C,0.800000*%
%TD*%
G04 APERTURE END LIST*
D10*
%TO.N,+3V3*%
X158550000Y-104450000D03*
X158550000Y-103720000D03*
X160501100Y-104370000D03*
X160501100Y-103720000D03*
%TO.N,*%
X158501100Y-102128600D03*
%TO.N,G1_D7*%
X157501100Y-102128600D03*
%TO.N,G1_RAD8*%
X156501100Y-102128600D03*
%TO.N,G1_D5*%
X155501100Y-102128600D03*
%TO.N,G1_RAD10*%
X154501100Y-102128600D03*
%TO.N,GND*%
X153501100Y-102128600D03*
%TO.N,G1_D3*%
X152501100Y-102128600D03*
%TO.N,G1_RAD12*%
X151501100Y-102128600D03*
%TO.N,G1_D1*%
X150501100Y-102128600D03*
%TO.N,G1_RAD14*%
X149501100Y-102128600D03*
%TO.N,GND*%
X148501100Y-102128600D03*
%TO.N,G1_BDRQ*%
X147501100Y-102128600D03*
%TO.N,G1_RDN*%
X146501100Y-102128600D03*
%TO.N,G1_DACKN*%
X145501100Y-102128600D03*
%TO.N,CD_EMPH*%
X144501100Y-102128600D03*
%TO.N,GND*%
X143501100Y-102128600D03*
%TO.N,G1_RAL8*%
X142501100Y-102128600D03*
%TO.N,G1_CS0N*%
X141501100Y-102128600D03*
%TO.N,GND*%
X140501100Y-102128600D03*
%TO.N,CD_BCK*%
X139501100Y-102128600D03*
%TO.N,CD_SD*%
X138501100Y-102128600D03*
%TO.N,GND*%
X137501100Y-102128600D03*
X137501100Y-107878600D03*
%TO.N,CDDA_CLK*%
X138501100Y-107878600D03*
%TO.N,CD_LRCK*%
X139501100Y-107878600D03*
%TO.N,GND*%
X140501100Y-107878600D03*
%TO.N,G1_CS1N*%
X141501100Y-107878600D03*
%TO.N,G1_RAL10*%
X142501100Y-107878600D03*
%TO.N,GND*%
X143501100Y-107878600D03*
%TO.N,G1_RAL9*%
X144501100Y-107878600D03*
%TO.N,G1_INTRQ*%
X145501100Y-107878600D03*
%TO.N,G1_IORDY*%
X146501100Y-107878600D03*
%TO.N,G1_WRN*%
X147501100Y-107878600D03*
%TO.N,GND*%
X148501100Y-107878600D03*
%TO.N,G1_RAD15*%
X149501100Y-107878600D03*
%TO.N,G1_D0*%
X150501100Y-107878600D03*
%TO.N,G1_RAD13*%
X151501100Y-107878600D03*
%TO.N,G1_D2*%
X152501100Y-107878600D03*
%TO.N,GND*%
X153501100Y-107878600D03*
%TO.N,G1_RAD11*%
X154501100Y-107878600D03*
%TO.N,G1_D4*%
X155501100Y-107878600D03*
%TO.N,G1_RAD9*%
X156501100Y-107878600D03*
%TO.N,G1_D6*%
X157501100Y-107878600D03*
%TO.N,*%
X158501100Y-107878600D03*
%TO.N,3*%
X159501100Y-107878600D03*
%TO.N,+3V3*%
X160501100Y-107878600D03*
%TO.N,G_RST*%
X159501100Y-102128600D03*
%TO.N,+3V3*%
X160501100Y-102128600D03*
%TD*%
D11*
%TO.N,+3V3*%
X158550000Y-103720000D02*
X158550000Y-104450000D01*
X160421100Y-104450000D02*
X160501100Y-104370000D01*
X158550000Y-104450000D02*
X160421100Y-104450000D01*
X160501100Y-103720000D02*
X158550000Y-103720000D01*
X160501100Y-102128600D02*
X160501100Y-107878600D01*
%TD*%
M02*
