M48
; DRILL file {KiCad 8.0.3} date 2024-07-09T00:04:23-0500
; FORMAT={-:-/ absolute / inch / decimal}
; #@! TF.CreationDate,2024-07-09T00:04:23-05:00
; #@! TF.GenerationSoftware,Kicad,Pcbnew,8.0.3
; #@! TF.FileFunction,Plated,1,2,PTH
FMAT,2
INCH
; #@! TA.AperFunction,Plated,PTH,ViaDrill
T1C0.0118
; #@! TA.AperFunction,Plated,PTH,ViaDrill
T2C0.0138
%
G90
G05
T1
X6.2421Y-4.0835
X6.2421Y-4.1122
X6.3189Y-4.0835
X6.3189Y-4.1091
T2
X5.4134Y-4.0208
X5.4134Y-4.2472
X5.4528Y-4.0208
X5.4528Y-4.2472
X5.4922Y-4.0208
X5.4922Y-4.2472
X5.5315Y-4.0208
X5.5315Y-4.2472
X5.5709Y-4.0208
X5.5709Y-4.2472
X5.6103Y-4.0208
X5.6103Y-4.2472
X5.6496Y-4.0208
X5.6496Y-4.2472
X5.689Y-4.0208
X5.689Y-4.2472
X5.7284Y-4.0208
X5.7284Y-4.2472
X5.7678Y-4.0208
X5.7678Y-4.2472
X5.8071Y-4.0208
X5.8071Y-4.2472
X5.8465Y-4.0208
X5.8465Y-4.2472
X5.8859Y-4.0208
X5.8859Y-4.2472
X5.9252Y-4.0208
X5.9252Y-4.2472
X5.9646Y-4.0208
X5.9646Y-4.2472
X6.004Y-4.0208
X6.004Y-4.2472
X6.0434Y-4.0208
X6.0434Y-4.2472
X6.0827Y-4.0208
X6.0827Y-4.2472
X6.1221Y-4.0208
X6.1221Y-4.2472
X6.1615Y-4.0208
X6.1615Y-4.2472
X6.2008Y-4.0208
X6.2008Y-4.2472
X6.2402Y-4.0208
X6.2402Y-4.2472
X6.2796Y-4.0208
X6.2796Y-4.2472
X6.3189Y-4.0208
X6.3189Y-4.2472
M30
